<svg width="22" height="20" viewBox="0 0 22 20" fill="none" xmlns="http://www.w3.org/2000/svg">
<path d="M20.8437 8.96094H4.84491L14.4207 0.648438C14.5738 0.514453 14.4808 0.265625 14.2785 0.265625H11.8586C11.7519 0.265625 11.6508 0.303906 11.5715 0.372265L1.23827 9.33828C1.14363 9.42032 1.06773 9.52174 1.01571 9.63567C0.963689 9.7496 0.936768 9.87339 0.936768 9.99863C0.936768 10.1239 0.963689 10.2477 1.01571 10.3616C1.06773 10.4755 1.14363 10.5769 1.23827 10.659L11.6316 19.6797C11.6726 19.7152 11.7219 19.7344 11.7738 19.7344H14.2758C14.4781 19.7344 14.5711 19.4828 14.418 19.3516L4.84491 11.0391H20.8437C20.964 11.0391 21.0625 10.9406 21.0625 10.8203V9.17969C21.0625 9.05937 20.964 8.96094 20.8437 8.96094Z" fill="white"/>
</svg>
